<?xml version="1.0" encoding="UTF-8" standalone="no"?>
<!-- Created with Inkscape (http://www.inkscape.org/) -->
<!DOCTYPE svg PUBLIC "-//W3C//DTD SVG 1.1//EN" "http://www.w3.org/Graphics/SVG/1.1/DTD/svg11.dtd">
<svg version="1.1" id="Layer_1"
   xmlns:dc="http://purl.org/dc/elements/1.1/"
   xmlns:cc="http://creativecommons.org/ns#"
   xmlns:rdf="http://www.w3.org/1999/02/22-rdf-syntax-ns#"
   xmlns:svg="http://www.w3.org/2000/svg"
   xmlns="http://www.w3.org/2000/svg"
   width="326.40625"
   height="319.66461"
   viewBox="13.224 0 326.40626 319.66462"
   xml:space="preserve">
<g>
<!--<path
       d="m 297.125,183.90625 c -4.12787,-0.0649 -8.29075,2.141 -10.21875,6.625 l -20.6875,46.3125 -19.3125,0 0,21.875 26.4375,0 c 6.713,0 8.777,-2.65225 10.75,-6.78125 1.97,-4.122 12.375,-28.3125 12.375,-28.3125 l 21.5625,55.0625 c 0.77828,1.98763 1.94683,3.53002 3.375,4.65625 l 0,-55.96875 -14.28125,-36.5 c -1.7815,-4.5525 -5.87213,-6.90388 -10,-6.96875 z"
       transform="translate(13.224,-3.3376873e-7)"
       id="monitoring-5-icon" />--><path
       d="m 29.303,299.99363 c 14.773,14.773 38.726,14.773 53.497,0 l 29.547,-29.546 c -2.331,-7.934 -3.545,-16.248 -3.545,-24.747 0,-23.32 9.083,-45.245 25.572,-61.734 23.854,-23.855 57.361,-30.584 86.479,-22.026 l 0.077,-0.076 c 27.365,8.257 58.271,1.579 79.896,-20.046 22.429,-22.429 28.78,-54.837997 19.065,-82.928997 l -50.997,50.996997 c -19.893,1.171 -50.654,-29.591997 -49.483,-49.484997 l 50.996,-50.998 c -28.09,-9.712 -60.5,-3.361 -82.929,19.068 -17.231,17.229 -24.973,40.352 -23.229,62.882 0.919,11.890997 -3.425,23.619997 -11.857,32.055997 l -123.089,123.085 c -14.772,14.775 -14.772,38.724 0,53.499 z m 13.003,-29.057 c 0,-8.609 6.98,-15.591 15.591,-15.591 8.611,0 15.59,6.98 15.59,15.591 0,8.611 -6.979,15.591 -15.59,15.591 -8.611,0 -15.591,-6.98 -15.591,-15.591 z"
       id="wrench-13-icon" /><path
       d="m 127.632,247.16463 c 0,37.278 30.222,67.5 67.5,67.5 37.277,0 67.5,-30.222 67.5,-67.5 0,-37.277 -30.223,-67.5 -67.5,-67.5 -37.279,0 -67.5,30.222 -67.5,67.5 z m 17.382,0 c 0,-27.701 22.42,-50.115 50.117,-50.115 27.702,0 50.117,22.419 50.117,50.115 0,27.702 -22.421,50.117 -50.117,50.117 -27.701,0 -50.117,-22.419 -50.117,-50.117 z m 90.972,3.206 c 0.562,0.099 0.97,0.584 0.97,1.153 v 0.03 c 0,0.562 -0.399,1.045 -0.954,1.147 -12.153,2.273 -40.948,6.996 -44.107,6.996 -4.525,0 -8.192,-3.668 -8.192,-8.191 0,-3.223 4.848,-34.3 7.084,-46.885 0.089,-0.505 0.528,-0.873 1.042,-0.873 h 0.002 c 0.562,0 1.037,0.406 1.125,0.961 l 6.204,39.289 36.826,6.373 z"
       id="time-3-icon_1_" />
</g></svg>
